<?xml version="1.0" encoding="iso-8859-1"?>
<!-- Generator: Adobe Illustrator 19.0.0, SVG Export Plug-In . SVG Version: 6.00 Build 0)  -->
<svg version="1.1" id="Layer_1" xmlns="http://www.w3.org/2000/svg" xmlns:xlink="http://www.w3.org/1999/xlink" x="0px" y="0px"
	 viewBox="0 0 512 512" style="enable-background:new 0 0 512 512;" xml:space="preserve">
<g>
	<g>
		<path d="M426.667,362.667H85.333c-5.888,0-10.667,4.779-10.667,10.667c0,5.888,4.779,10.667,10.667,10.667h341.333
			c5.888,0,10.667-4.779,10.667-10.667C437.333,367.445,432.555,362.667,426.667,362.667z"/>
	</g>
</g>
<g>
	<g>
		<path d="M256,405.333c-17.643,0-32,14.357-32,32c0,17.643,14.357,32,32,32s32-14.357,32-32
			C288,419.691,273.643,405.333,256,405.333z M256,448c-5.867,0-10.667-4.779-10.667-10.667c0-5.888,4.8-10.667,10.667-10.667
			c5.867,0,10.667,4.779,10.667,10.667C266.667,443.221,261.867,448,256,448z"/>
	</g>
</g>
<g>
	<g>
		<path d="M256,0C141.845,0,53.333,154.816,53.333,288c0,95.253,46.251,182.656,117.824,222.656c1.6,0.875,3.392,1.344,5.205,1.344
			h159.275c1.813,0,3.605-0.469,5.227-1.344c71.552-40,117.803-127.403,117.803-222.656C458.667,154.816,370.155,0,256,0z
			 M332.8,490.667H179.179C115.605,453.781,74.667,374.571,74.667,288c0-120.789,80.896-266.667,181.333-266.667
			S437.333,167.211,437.312,288C437.312,374.571,396.373,453.781,332.8,490.667z"/>
	</g>
</g>
<g>
	<g>
		<path d="M256,277.333c-5.888,0-10.667,4.779-10.667,10.667v42.667c0,5.888,4.779,10.667,10.667,10.667
			c5.888,0,10.667-4.779,10.667-10.667V288C266.667,282.112,261.888,277.333,256,277.333z"/>
	</g>
</g>
<g>
	<g>
		<path d="M362.667,277.333c-5.888,0-10.667,4.779-10.667,10.667v42.667c0,5.888,4.779,10.667,10.667,10.667
			s10.667-4.779,10.667-10.667V288C373.333,282.112,368.555,277.333,362.667,277.333z"/>
	</g>
</g>
<g>
	<g>
		<path d="M149.333,277.333c-5.888,0-10.667,4.779-10.667,10.667v42.667c0,5.888,4.779,10.667,10.667,10.667
			S160,336.555,160,330.667V288C160,282.112,155.221,277.333,149.333,277.333z"/>
	</g>
</g>
<g>
</g>
<g>
</g>
<g>
</g>
<g>
</g>
<g>
</g>
<g>
</g>
<g>
</g>
<g>
</g>
<g>
</g>
<g>
</g>
<g>
</g>
<g>
</g>
<g>
</g>
<g>
</g>
<g>
</g>
</svg>
